<svg xmlns="http://www.w3.org/2000/svg"  viewBox="0 0 24 24" width="24px" height="24px"><path d="M19.971,14.583C19.985,14.39,20,14.197,20,14c0-4.418-3.582-8-8-8s-8,3.582-8,8c0,0.197,0.015,0.39,0.029,0.583 C3.433,14.781,3,15.337,3,16c0,0.828,0.672,1.5,1.5,1.5c0.103,0,0.203-0.01,0.3-0.03C6.093,20.148,8.827,22,12,22 s5.907-1.852,7.2-4.53c0.097,0.02,0.197,0.03,0.3,0.03c0.828,0,1.5-0.672,1.5-1.5C21,15.337,20.567,14.781,19.971,14.583z" opacity=".35"/><path d="M15,4c0-1.105-0.895-2-2-2h-1c-4.971,0-9,4.029-9,9v3c0,0.552,0.448,1,1,1s1-0.293,1-1c0-1.64,1.343-3,3-3h8	c1.657,0,3,1.343,3,3c0,0.584,0.448,1,1,1s1-0.448,1-1v-3C21,4,15,4,15,4z"/></svg>